%
M48
M72
T01C0.0236
T02C0.0276
T03C0.0315
T04C0.0320
T05C0.0394
T06C0.0400
T07C0.0500
T08C0.0700
%
T01
X2927Y2840
X4147Y1040
X5877Y3860
X2927Y5680
X2937Y9540
X2937Y10700
X4487Y10790
X2897Y12790
X3207Y14800
X5137Y15470
X9577Y18720
X11747Y16980
X14677Y14470
X16017Y16870
X20167Y15960
X23497Y15660
X24367Y15620
X25857Y16410
X27497Y18820
X25707Y20800
X26207Y21300
X23707Y20800
X21667Y21690
X21707Y22300
X31207Y23300
X31707Y22800
X25707Y13300
X26207Y13060
X19587Y12660
X17597Y9840
X14707Y8300
X13917Y8110
X14197Y7650
X17477Y5290
X13707Y4300
X12207Y4300
X14817Y2100
X23727Y3390
X30187Y4630
X32827Y1150
X33717Y1100
X34757Y1190
X34897Y2490
X14327Y11010
X8567Y10880
X3707Y23300
T02
X20707Y14300
X21707Y14300
X21707Y13300
X20707Y13300
X20707Y12300
X21707Y12300
T03
X8707Y19800
X7707Y19800
X6707Y19800
X5707Y19800
X4207Y22300
X3207Y22300
X6707Y3300
X7707Y3300
T04
X8707Y8800
X9707Y8800
X10707Y8800
X11707Y8800
X11707Y11800
X10707Y11800
X9707Y11800
X8707Y11800
X18707Y16800
X19707Y16800
X20707Y16800
X21707Y16800
X22707Y16800
X23707Y16800
X24707Y16800
X27707Y16800
X27707Y17800
X27707Y15800
X24707Y19800
X23707Y19800
X22707Y19800
X21707Y19800
X20707Y19800
X19707Y19800
X18707Y19800
T05
X18707Y22300
X19707Y22300
X20707Y22300
X22707Y22300
X23707Y22300
X24707Y22300
X25707Y22300
X26707Y22300
X27707Y22300
X28707Y22300
X29707Y22300
X32707Y22300
X33707Y22300
X33707Y21300
X32707Y21300
X32707Y20300
X33707Y20300
X33707Y19300
X32707Y19300
X32707Y18300
X33707Y18300
X33707Y17300
X32707Y17300
X32707Y16300
X33707Y16300
X33707Y15300
X32707Y15300
X32707Y14300
X33707Y14300
X33707Y13300
X32707Y13300
X32707Y12300
X33707Y12300
X33707Y11300
X32707Y11300
X32707Y10300
X33707Y10300
X33707Y9300
X33707Y8300
X32707Y8300
X32707Y9300
X32707Y7300
X33707Y7300
X33707Y6300
X32707Y6300
X32707Y5300
X33707Y5300
X31707Y3300
X30707Y3300
X29707Y3300
X28707Y3300
X27707Y3300
X26707Y3300
X25707Y3300
X24707Y3300
X22707Y3300
X21707Y3300
X20707Y3300
X19707Y3300
X18707Y3300
X17707Y3300
X16707Y3300
X15707Y3300
X13707Y3300
X12707Y3300
X11707Y3300
X10707Y3300
X9707Y3300
X8707Y3300
X9207Y22300
X10207Y22300
X11207Y22300
X12207Y22300
X13707Y22300
X14707Y22300
X15707Y22300
X16707Y22300
X17707Y22300
X8207Y22300
X7207Y22300
X6207Y22300
X5207Y22300
X5207Y22300
T06
X3317Y1520
X5097Y1520
X5097Y4080
X3317Y4080
X7257Y6630
X7157Y7630
X7257Y8630
X8767Y7510
X9767Y7610
X10767Y7510
X10717Y6180
X9717Y6080
X8717Y6180
X8707Y4880
X9707Y4980
X10707Y4880
X13137Y4980
X13037Y5980
X13137Y6980
X7247Y11760
X7147Y12760
X7247Y13760
X8707Y13250
X9707Y13350
X10707Y13250
X10707Y14850
X9707Y14750
X8707Y14850
X8697Y16170
X9697Y16270
X10697Y16170
X13227Y15070
X13127Y14070
X13227Y13070
X24687Y13310
X24787Y14310
X24787Y12310
T07
X4707Y12760
X4707Y7650
T08
X5711Y6646
X3703Y6646
X3703Y8654
X5711Y8654
X5711Y11756
X3703Y11756
X3703Y13764
X5711Y13764
M30
