G75*
%MOIN*%
%OFA0B0*%
%FSLAX24Y24*%
%IPPOS*%
%LPD*%
%AMOC8*
5,1,8,0,0,1.08239X$1,22.5*
%
%ADD10R,0.0433X0.0394*%
%ADD11R,0.0217X0.0472*%
%ADD12R,0.0394X0.0433*%
%ADD13R,0.0315X0.0315*%
D10*
X014322Y004960D03*
X014992Y004960D03*
X014992Y006000D03*
X014322Y006000D03*
X014222Y012100D03*
X014892Y012100D03*
X014892Y013070D03*
X014222Y013070D03*
X018702Y015600D03*
X019372Y015600D03*
X025872Y019300D03*
X026542Y019300D03*
X026602Y018170D03*
X025932Y018170D03*
X022722Y020910D03*
X022052Y020910D03*
X021322Y020920D03*
X020652Y020920D03*
X018692Y020940D03*
X018022Y020940D03*
X017282Y020940D03*
X016612Y020940D03*
X028702Y014700D03*
X029372Y014700D03*
X029352Y013620D03*
X028682Y013620D03*
X033542Y004130D03*
X034212Y004130D03*
X003782Y015810D03*
X003112Y015810D03*
X003102Y017730D03*
X003772Y017730D03*
X003792Y019910D03*
X003122Y019910D03*
D11*
X027003Y014332D03*
X027751Y014332D03*
X027751Y013308D03*
X027377Y013308D03*
X027003Y013308D03*
D12*
X006107Y004895D03*
X006107Y005565D03*
X007557Y005595D03*
X007557Y004925D03*
X007267Y009985D03*
X007267Y010655D03*
X006097Y010655D03*
X006097Y009985D03*
X026047Y014315D03*
X026047Y014985D03*
D13*
X034207Y003185D03*
X034207Y002595D03*
X003702Y016770D03*
X003112Y016770D03*
X003102Y018690D03*
X003692Y018690D03*
X003722Y020910D03*
X003132Y020910D03*
M02*
