G75*
%MOIN*%
%OFA0B0*%
%FSLAX24Y24*%
%IPPOS*%
%LPD*%
%AMOC8*
5,1,8,0,0,1.08239X$1,22.5*
%
%ADD10C,0.0674*%
%ADD11C,0.0674*%
%ADD12C,0.0640*%
%ADD13C,0.0740*%
%ADD14R,0.0740X0.0740*%
%ADD15C,0.0830*%
%ADD16C,0.1130*%
%ADD17C,0.0820*%
%ADD18C,0.0600*%
%ADD19OC8,0.0760*%
D10*
X008707Y003003D02*
X008707Y003597D01*
X009707Y003597D02*
X009707Y003003D01*
X010707Y003003D02*
X010707Y003597D01*
X011707Y003597D02*
X011707Y003003D01*
X012707Y003003D02*
X012707Y003597D01*
X013707Y003597D02*
X013707Y003003D01*
X015707Y003003D02*
X015707Y003597D01*
X016707Y003597D02*
X016707Y003003D01*
X017707Y003003D02*
X017707Y003597D01*
X018707Y003597D02*
X018707Y003003D01*
X019707Y003003D02*
X019707Y003597D01*
X020707Y003597D02*
X020707Y003003D01*
X021707Y003003D02*
X021707Y003597D01*
X022707Y003597D02*
X022707Y003003D01*
X024707Y003003D02*
X024707Y003597D01*
X025707Y003597D02*
X025707Y003003D01*
X026707Y003003D02*
X026707Y003597D01*
X027707Y003597D02*
X027707Y003003D01*
X028707Y003003D02*
X028707Y003597D01*
X029707Y003597D02*
X029707Y003003D01*
X030707Y003003D02*
X030707Y003597D01*
X031707Y003597D02*
X031707Y003003D01*
X029707Y022003D02*
X029707Y022597D01*
X028707Y022597D02*
X028707Y022003D01*
X027707Y022003D02*
X027707Y022597D01*
X026707Y022597D02*
X026707Y022003D01*
X025707Y022003D02*
X025707Y022597D01*
X024707Y022597D02*
X024707Y022003D01*
X023707Y022003D02*
X023707Y022597D01*
X022707Y022597D02*
X022707Y022003D01*
X020707Y022003D02*
X020707Y022597D01*
X019707Y022597D02*
X019707Y022003D01*
X018707Y022003D02*
X018707Y022597D01*
X017707Y022597D02*
X017707Y022003D01*
X016707Y022003D02*
X016707Y022597D01*
X015707Y022597D02*
X015707Y022003D01*
X014707Y022003D02*
X014707Y022597D01*
X013707Y022597D02*
X013707Y022003D01*
X012207Y022003D02*
X012207Y022597D01*
X011207Y022597D02*
X011207Y022003D01*
X010207Y022003D02*
X010207Y022597D01*
X009207Y022597D02*
X009207Y022003D01*
X008207Y022003D02*
X008207Y022597D01*
X007207Y022597D02*
X007207Y022003D01*
X006207Y022003D02*
X006207Y022597D01*
X005207Y022597D02*
X005207Y022003D01*
X005207Y022597D01*
D11*
X032707Y022300D03*
X033707Y022300D03*
X033707Y021300D03*
X032707Y021300D03*
X032707Y020300D03*
X033707Y020300D03*
X033707Y019300D03*
X032707Y019300D03*
X032707Y018300D03*
X033707Y018300D03*
X033707Y017300D03*
X032707Y017300D03*
X032707Y016300D03*
X033707Y016300D03*
X033707Y015300D03*
X032707Y015300D03*
X032707Y014300D03*
X033707Y014300D03*
X033707Y013300D03*
X032707Y013300D03*
X032707Y012300D03*
X033707Y012300D03*
X033707Y011300D03*
X032707Y011300D03*
X032707Y010300D03*
X033707Y010300D03*
X033707Y009300D03*
X033707Y008300D03*
X032707Y008300D03*
X032707Y009300D03*
X032707Y007300D03*
X033707Y007300D03*
X033707Y006300D03*
X032707Y006300D03*
X032707Y005300D03*
X033707Y005300D03*
D12*
X008707Y019520D02*
X008707Y020080D01*
X007707Y020080D02*
X007707Y019520D01*
X006707Y019520D02*
X006707Y020080D01*
X005707Y020080D02*
X005707Y019520D01*
X004207Y022020D02*
X004207Y022580D01*
X003207Y022580D02*
X003207Y022020D01*
X006707Y003580D02*
X006707Y003020D01*
X007707Y003020D02*
X007707Y003580D01*
D13*
X020707Y012300D03*
X021707Y012300D03*
X021707Y013300D03*
X021707Y014300D03*
X020707Y013300D03*
D14*
X020707Y014300D03*
D15*
X004707Y012760D03*
X004707Y007650D03*
D16*
X005711Y006646D03*
X003703Y006646D03*
X003703Y008654D03*
X005711Y008654D03*
X005711Y011756D03*
X003703Y011756D03*
X003703Y013764D03*
X005711Y013764D03*
D17*
X003317Y001520D03*
X005097Y001520D03*
X005097Y004080D03*
X003317Y004080D03*
X007257Y006630D03*
X007157Y007630D03*
X007257Y008630D03*
X008767Y007510D03*
X009767Y007610D03*
X010767Y007510D03*
X010717Y006180D03*
X009717Y006080D03*
X008717Y006180D03*
X008707Y004880D03*
X009707Y004980D03*
X010707Y004880D03*
X013137Y004980D03*
X013037Y005980D03*
X013137Y006980D03*
X007247Y011760D03*
X007147Y012760D03*
X007247Y013760D03*
X008707Y013250D03*
X009707Y013350D03*
X010707Y013250D03*
X010707Y014850D03*
X009707Y014750D03*
X008707Y014850D03*
X008697Y016170D03*
X009697Y016270D03*
X010697Y016170D03*
X013227Y015070D03*
X013127Y014070D03*
X013227Y013070D03*
X024687Y013310D03*
X024787Y014310D03*
X024787Y012310D03*
D18*
X027447Y015800D02*
X027967Y015800D01*
X027967Y016800D02*
X027447Y016800D01*
X027447Y017800D02*
X027967Y017800D01*
X024707Y017060D02*
X024707Y016540D01*
X023707Y016540D02*
X023707Y017060D01*
X022707Y017060D02*
X022707Y016540D01*
X021707Y016540D02*
X021707Y017060D01*
X020707Y017060D02*
X020707Y016540D01*
X019707Y016540D02*
X019707Y017060D01*
X018707Y017060D02*
X018707Y016540D01*
X018707Y019540D02*
X018707Y020060D01*
X019707Y020060D02*
X019707Y019540D01*
X020707Y019540D02*
X020707Y020060D01*
X021707Y020060D02*
X021707Y019540D01*
X022707Y019540D02*
X022707Y020060D01*
X023707Y020060D02*
X023707Y019540D01*
X024707Y019540D02*
X024707Y020060D01*
D19*
X011707Y011800D03*
X010707Y011800D03*
X009707Y011800D03*
X008707Y011800D03*
X008707Y008800D03*
X009707Y008800D03*
X010707Y008800D03*
X011707Y008800D03*
M02*
